# xmcd CD database file generated by Grip 3.0.7
# 
# Track frame offsets:
#       150
#       13424
#       33936
#       51424
#       68985
#       90517
#       110676
#       125996
#       144966
#       165628
#       182356
#       200587
#       215928
#       234282
#       249588
#       265879
#       283040
#       298804
#       313716
# 
# Disc length: 4429 seconds
# 
# Revision: 5
# Processed by: cddbd v1.4PL0 Copyright (c) Steve Scherf et al.
# Submitted via: Grip 3.0.7
# 
DISCID=2b114b13
DTITLE=Shania Twain - Up!
DYEAR=2002
DGENRE=Country
TTITLE0=Up!
TTITLE1=I'm gonna getcha good!
TTITLE2=She's not just a pretty face
TTITLE3=Juanita
TTITLE4=Forever and for always
TTITLE5=Ain't no particular way
TTITLE6=It only hurts when I'm breathing
TTITLE7=Nah!
TTITLE8=(Wanna get to know you) that good!
TTITLE9=C'est la ve
TTITLE10=I'm jealous
TTITLE11=Ka-ching!
TTITLE12=Thank you baby (for making someday come so soon)
TTITLE13=Waiter! bring me water!
TTITLE14=What a way to wanna be!
TTITLE15=I ain't goin' down
TTITLE16=I'm not in the mood (to say no)!
TTITLE17=In my car (I'll be the driver)
TTITLE18=When you kiss me
EXTD=
EXTT0=
EXTT1=
EXTT2=
EXTT3=
EXTT4=
EXTT5=
EXTT6=
EXTT7=
EXTT8=
EXTT9=
EXTT10=
EXTT11=
EXTT12=
EXTT13=
EXTT14=
EXTT15=
EXTT16=
EXTT17=
EXTT18=
PLAYORDER=
